<?xml version="1.0" encoding="UTF-8" standalone="no" ?>
<!DOCTYPE svg PUBLIC "-//W3C//DTD SVG 1.1//EN" "http://www.w3.org/Graphics/SVG/1.1/DTD/svg11.dtd">
<svg xmlns="http://www.w3.org/2000/svg" xmlns:xlink="http://www.w3.org/1999/xlink" version="1.1" width="500" height="500" viewBox="0 0 500 500" xml:space="preserve">
<desc>Created with Fabric.js 4.6.0</desc>
<defs>
</defs>
<g transform="matrix(1 0 0 1 250 250)" id="7Agd8nQhL9vt2DPBuhVNj"  >
<g style="" vector-effect="non-scaling-stroke"   >
		<g transform="matrix(1.06 0 0 1.06 0 0)" id="kB5Xej31JYDehnNPZZ0vZ"  >
<path style="stroke: rgb(171,32,253); stroke-opacity: 0.8; stroke-width: 0; stroke-dasharray: none; stroke-linecap: butt; stroke-dashoffset: 0; stroke-linejoin: miter; stroke-miterlimit: 4; fill: rgb(77,71,71); fill-rule: nonzero; opacity: 1;" vector-effect="non-scaling-stroke"  transform=" translate(0, 0)" d="M 0 -134.16431 C 74.0587 -134.16431 134.16431 -74.0587 134.16431 0 C 134.16431 74.0587 74.0587 134.16431 0 134.16431 C -74.0587 134.16431 -134.16431 74.0587 -134.16431 0 C -134.16431 -74.0587 -74.0587 -134.16431 0 -134.16431 z" stroke-linecap="round" />
</g>
		<g transform="matrix(1 0 0 1 -3.63 0)" id="KMGsPKfMQ_Of5RTgAzHl8"  >
<path style="stroke: rgb(171,32,253); stroke-opacity: 0.8; stroke-width: 0; stroke-dasharray: none; stroke-linecap: butt; stroke-dashoffset: 0; stroke-linejoin: miter; stroke-miterlimit: 4; fill: rgb(171,32,253); fill-rule: nonzero; opacity: 1;" vector-effect="non-scaling-stroke"  transform=" translate(-55.3, -55.3)" d="M 55.29745 0 C 85.82164 0 110.5949 24.77326 110.5949 55.29745 C 110.5949 85.82164 85.82164 110.5949 55.29745 110.5949 C 24.773259999999997 110.5949 0 85.82164 0 55.29745 C 0 24.773259999999997 24.77326 0 55.29745 0 z" stroke-linecap="round" />
</g>
		<g transform="matrix(1 0 0 1 -3.63 0)" id="oMIAIQfggUiMlLUXqJzLd"  >
<path style="stroke: rgb(171,32,253); stroke-opacity: 0.8; stroke-width: 0; stroke-dasharray: none; stroke-linecap: butt; stroke-dashoffset: 0; stroke-linejoin: miter; stroke-miterlimit: 4; fill: rgb(77,71,71); fill-rule: nonzero; opacity: 1;" vector-effect="non-scaling-stroke"  transform=" translate(-19.94, -19.94)" d="M 19.94334 0 C 30.95207 0 39.88668 8.93462 39.88668 19.94334 C 39.88668 30.95207 30.952059999999996 39.88668 19.94334 39.88668 C 8.93461 39.88668 0 30.952059999999996 0 19.94334 C 0 8.93461 8.93462 0 19.94334 0 z" stroke-linecap="round" />
</g>
		<g transform="matrix(1.14 0 0 1.14 0 0)" id="CfCg6168XpdPF1wQx4OnI"  >
<path style="stroke: rgb(131,119,119); stroke-width: 1; stroke-dasharray: none; stroke-linecap: butt; stroke-dashoffset: 0; stroke-linejoin: miter; stroke-miterlimit: 4; fill: none; fill-rule: nonzero; opacity: 1;" vector-effect="non-scaling-stroke"  transform=" translate(0, 0)" d="M 0 -109.23512 C 60.29779 -109.23512 109.23512 -60.297779999999996 109.23512 0 C 109.23512 60.29779 60.297779999999996 109.23512 0 109.23512 C -60.29779 109.23512 -109.23512 60.297779999999996 -109.23512 0 C -109.23512 -60.29779 -60.297779999999996 -109.23512 0 -109.23512 z" stroke-linecap="round" />
</g>
		<g transform="matrix(0.92 0 0 0.92 -3.63 0)" id="qfHQD9B1we3qwT6LpfRJF"  >
<path style="stroke: rgb(131,119,119); stroke-width: 1; stroke-dasharray: none; stroke-linecap: butt; stroke-dashoffset: 0; stroke-linejoin: miter; stroke-miterlimit: 4; fill: none; fill-rule: nonzero; opacity: 1;" vector-effect="non-scaling-stroke"  transform=" translate(0, 0)" d="M 0 -109.23512 C 60.29779 -109.23512 109.23512 -60.297779999999996 109.23512 0 C 109.23512 60.29779 60.297779999999996 109.23512 0 109.23512 C -60.29779 109.23512 -109.23512 60.297779999999996 -109.23512 0 C -109.23512 -60.29779 -60.297779999999996 -109.23512 0 -109.23512 z" stroke-linecap="round" />
</g>
		<g transform="matrix(0.69 0 0 0.69 -3.63 0)" id="gjFCK2nlYmYxL-Y1Yh_zz"  >
<path style="stroke: rgb(131,119,119); stroke-width: 1; stroke-dasharray: none; stroke-linecap: butt; stroke-dashoffset: 0; stroke-linejoin: miter; stroke-miterlimit: 4; fill: none; fill-rule: nonzero; opacity: 1;" vector-effect="non-scaling-stroke"  transform=" translate(0, 0)" d="M 0 -109.23512 C 60.29779 -109.23512 109.23512 -60.297779999999996 109.23512 0 C 109.23512 60.29779 60.297779999999996 109.23512 0 109.23512 C -60.29779 109.23512 -109.23512 60.297779999999996 -109.23512 0 C -109.23512 -60.29779 -60.297779999999996 -109.23512 0 -109.23512 z" stroke-linecap="round" />
</g>
</g>
</g>
</svg>